<mxfile host="app.diagrams.net" modified="2023-12-27T17:17:06.171Z" agent="Mozilla/5.0 (Windows NT 10.0; Win64; x64) AppleWebKit/537.36 (KHTML, like Gecko) Chrome/119.0.0.0 Safari/537.36 OPR/105.0.0.0" etag="bPxnkoTPn9R3D2gjUFPm" version="22.1.14" type="github">
  <diagram name="Page-1" id="UDWoGtL_7uZv4u4wRElb">
    <mxGraphModel dx="1431" dy="621" grid="1" gridSize="10" guides="1" tooltips="1" connect="1" arrows="1" fold="1" page="1" pageScale="1" pageWidth="850" pageHeight="1100" math="0" shadow="0">
      <root>
        <mxCell id="0" />
        <mxCell id="1" parent="0" />
        <mxCell id="f_X2KHW1sc05QWSsv8tr-1" value="&lt;font style=&quot;font-size: 18px;&quot;&gt;Người chơi&lt;/font&gt;" style="rounded=0;whiteSpace=wrap;html=1;" vertex="1" parent="1">
          <mxGeometry x="80" y="40" width="170" height="90" as="geometry" />
        </mxCell>
        <mxCell id="f_X2KHW1sc05QWSsv8tr-2" value="&lt;font style=&quot;font-size: 18px;&quot;&gt;Sự kiện cày tiền&lt;/font&gt;" style="rounded=1;whiteSpace=wrap;html=1;" vertex="1" parent="1">
          <mxGeometry x="460" y="40" width="190" height="120" as="geometry" />
        </mxCell>
        <mxCell id="f_X2KHW1sc05QWSsv8tr-3" value="" style="edgeStyle=segmentEdgeStyle;endArrow=classic;html=1;curved=0;rounded=0;endSize=8;startSize=8;" edge="1" parent="1" target="f_X2KHW1sc05QWSsv8tr-2">
          <mxGeometry width="50" height="50" relative="1" as="geometry">
            <mxPoint x="250" y="80" as="sourcePoint" />
            <mxPoint x="300" y="30" as="targetPoint" />
          </mxGeometry>
        </mxCell>
        <mxCell id="f_X2KHW1sc05QWSsv8tr-4" value="" style="line;strokeWidth=2;html=1;" vertex="1" parent="1">
          <mxGeometry x="460" y="60" width="190" height="10" as="geometry" />
        </mxCell>
        <mxCell id="f_X2KHW1sc05QWSsv8tr-5" value="&lt;font style=&quot;font-size: 16px;&quot;&gt;1.0&lt;/font&gt;" style="text;html=1;align=center;verticalAlign=middle;resizable=0;points=[];autosize=1;strokeColor=none;fillColor=none;" vertex="1" parent="1">
          <mxGeometry x="528" y="38" width="50" height="30" as="geometry" />
        </mxCell>
        <mxCell id="f_X2KHW1sc05QWSsv8tr-6" value="Tham gia hoạt động grind" style="text;html=1;align=center;verticalAlign=middle;resizable=0;points=[];autosize=1;strokeColor=none;fillColor=none;" vertex="1" parent="1">
          <mxGeometry x="270" y="52" width="160" height="30" as="geometry" />
        </mxCell>
        <mxCell id="f_X2KHW1sc05QWSsv8tr-7" value="&lt;font style=&quot;font-size: 18px;&quot;&gt;Hệ thống tiền tệ&lt;/font&gt;" style="rounded=1;whiteSpace=wrap;html=1;" vertex="1" parent="1">
          <mxGeometry x="460" y="270" width="184" height="120" as="geometry" />
        </mxCell>
        <mxCell id="f_X2KHW1sc05QWSsv8tr-14" value="" style="line;strokeWidth=2;html=1;" vertex="1" parent="1">
          <mxGeometry x="460" y="296" width="184" height="10" as="geometry" />
        </mxCell>
        <mxCell id="f_X2KHW1sc05QWSsv8tr-15" value="&lt;font style=&quot;font-size: 16px;&quot;&gt;2.0&lt;/font&gt;" style="text;html=1;align=center;verticalAlign=middle;resizable=0;points=[];autosize=1;strokeColor=none;fillColor=none;" vertex="1" parent="1">
          <mxGeometry x="522" y="270" width="50" height="30" as="geometry" />
        </mxCell>
        <mxCell id="f_X2KHW1sc05QWSsv8tr-16" value="" style="edgeStyle=segmentEdgeStyle;endArrow=classic;html=1;curved=0;rounded=0;endSize=8;startSize=8;exitX=0.5;exitY=1;exitDx=0;exitDy=0;entryX=0.66;entryY=0.06;entryDx=0;entryDy=0;entryPerimeter=0;" edge="1" parent="1" source="f_X2KHW1sc05QWSsv8tr-2" target="f_X2KHW1sc05QWSsv8tr-15">
          <mxGeometry width="50" height="50" relative="1" as="geometry">
            <mxPoint x="560" y="210" as="sourcePoint" />
            <mxPoint x="610" y="160" as="targetPoint" />
          </mxGeometry>
        </mxCell>
        <mxCell id="f_X2KHW1sc05QWSsv8tr-19" value="&lt;font style=&quot;font-size: 18px;&quot;&gt;Hệ thống game&lt;/font&gt;" style="rounded=1;whiteSpace=wrap;html=1;" vertex="1" parent="1">
          <mxGeometry x="200" y="420" width="190" height="120" as="geometry" />
        </mxCell>
        <mxCell id="f_X2KHW1sc05QWSsv8tr-21" value="" style="line;strokeWidth=2;html=1;" vertex="1" parent="1">
          <mxGeometry x="201" y="445" width="189" height="10" as="geometry" />
        </mxCell>
        <mxCell id="f_X2KHW1sc05QWSsv8tr-23" value="&lt;font style=&quot;font-size: 16px;&quot;&gt;3.0&lt;/font&gt;" style="text;html=1;align=center;verticalAlign=middle;resizable=0;points=[];autosize=1;strokeColor=none;fillColor=none;" vertex="1" parent="1">
          <mxGeometry x="265" y="420" width="50" height="30" as="geometry" />
        </mxCell>
        <mxCell id="f_X2KHW1sc05QWSsv8tr-24" value="" style="edgeStyle=segmentEdgeStyle;endArrow=classic;html=1;curved=0;rounded=0;endSize=8;startSize=8;exitX=-0.008;exitY=0.571;exitDx=0;exitDy=0;exitPerimeter=0;entryX=0.458;entryY=-0.137;entryDx=0;entryDy=0;entryPerimeter=0;" edge="1" parent="1">
          <mxGeometry width="50" height="50" relative="1" as="geometry">
            <mxPoint x="458.528" y="341.52" as="sourcePoint" />
            <mxPoint x="287.89999999999986" y="418.8900000000001" as="targetPoint" />
          </mxGeometry>
        </mxCell>
        <mxCell id="f_X2KHW1sc05QWSsv8tr-25" value="" style="edgeStyle=segmentEdgeStyle;endArrow=classic;html=1;curved=0;rounded=0;endSize=8;startSize=8;exitX=0;exitY=0.5;exitDx=0;exitDy=0;" edge="1" parent="1" source="f_X2KHW1sc05QWSsv8tr-19">
          <mxGeometry width="50" height="50" relative="1" as="geometry">
            <mxPoint x="110" y="180" as="sourcePoint" />
            <mxPoint x="160" y="130" as="targetPoint" />
          </mxGeometry>
        </mxCell>
        <mxCell id="f_X2KHW1sc05QWSsv8tr-26" value="Hiển thị số tiền thưởng" style="text;html=1;align=center;verticalAlign=middle;resizable=0;points=[];autosize=1;strokeColor=none;fillColor=none;" vertex="1" parent="1">
          <mxGeometry x="150" y="270" width="150" height="30" as="geometry" />
        </mxCell>
      </root>
    </mxGraphModel>
  </diagram>
</mxfile>
